<?xml version="1.0" encoding="utf-8"?><svg xml:space="preserve" viewBox="0 0 100 100" y="0px" x="0px" xmlns:xlink="http://www.w3.org/1999/xlink" xmlns="http://www.w3.org/2000/svg" id="Layer_1" version="1.1" width="200px" height="200px" style="width:100%;height:100%;background-size:initial;background-repeat-y:initial;background-repeat-x:initial;background-position-y:initial;background-position-x:initial;background-origin:initial;background-image:initial;background-color:rgb(255, 255, 255);background-clip:initial;background-attachment:initial;animation-play-state:paused" ><g class="ldl-scale" style="transform-origin:50% 50%;transform:rotate(0deg) scale(0.8, 0.8);animation-play-state:paused" ><path d="M69.28,58.2l13.3-7.68c3.1-1.79,3.98-5.85,1.93-8.79C71.58,23.2,50.84,10.53,27.05,8.52c-3.58-0.3-6.67,2.47-6.67,6.06v15.38 C41.28,29.96,59.51,41.32,69.28,58.2z" stroke-miterlimit="10" stroke-linejoin="round" stroke-linecap="round" stroke-width="3.5" stroke="#323334" fill="#F6B26A" style="stroke:rgb(50, 51, 52);fill:rgb(246, 178, 106);animation-play-state:paused" ></path>
<path d="M33.24,79.02c1.25,0.87,2.64,1.53,4.11,1.96c1.11,0.32,1.84,1.38,1.84,2.53v2.37c0,1.73,1.29,3.27,3.02,3.36 c1.84,0.1,3.36-1.37,3.36-3.18v-2.49c0-1.75,1.54-3.18,3.28-2.91c3.5,0.54,6.36,3.58,6.29,7.46c-0.03,1.99,0.9,3.92,2.7,4.78 c3.9,1.86,7.73-0.93,7.73-4.62V60.36l-0.01-0.01l3.73-2.15c-9.76-16.87-28-28.24-48.9-28.24v56.47l35.68-20.6" stroke-miterlimit="10" stroke-linejoin="round" stroke-linecap="round" stroke-width="3.5" stroke="#323334" fill="#F5E169" style="stroke:rgb(50, 51, 52);fill:rgb(245, 225, 105);animation-play-state:paused" ></path>
<polygon points="56.06,65.83 43.75,72.94 43.75,72.94" fill="none" style="animation-play-state:paused" ></polygon>
<path d="M33.24,79.02c0.34,0.23,0.69,0.45,1.04,0.65c-0.23-0.28-0.43-0.59-0.61-0.91L33.24,79.02z" stroke-miterlimit="10" stroke-linejoin="round" stroke-linecap="round" stroke-width="3.5" stroke="#323334" fill="#F5E169" style="stroke:rgb(50, 51, 52);fill:rgb(245, 225, 105);animation-play-state:paused" ></path>
<circle r="5.84" cy="57.91" cx="46.09" stroke-miterlimit="10" stroke-width="3.5" stroke="#323334" fill="#C33836" style="stroke:rgb(50, 51, 52);fill:rgb(195, 56, 54);animation-play-state:paused" ></circle>
<path d="M50.08,45.1c2.48,1.43,5.56,0.83,7.35-1.26 c-2.92-2.54-6.1-4.79-9.5-6.7C46.33,39.93,47.29,43.49,50.08,45.1z" stroke-miterlimit="10" stroke-width="3.5" stroke="#323334" fill="#C33836" style="stroke:rgb(50, 51, 52);fill:rgb(195, 56, 54);animation-play-state:paused" ></path>
<path d="M29.49,39.04c-2.8,1.61-3.75,5.19-2.14,7.98 c1.61,2.8,5.19,3.75,7.98,2.14c2.8-1.61,3.75-5.19,2.14-7.98C35.86,38.39,32.29,37.43,29.49,39.04z" stroke-miterlimit="10" stroke-width="3.5" stroke="#323334" fill="#C33836" style="stroke:rgb(50, 51, 52);fill:rgb(195, 56, 54);animation-play-state:paused" ></path>
<path d="M27.5,65.34c0-3.23-2.62-5.84-5.84-5.84 c-0.44,0-0.86,0.05-1.27,0.14v11.4c0.41,0.09,0.84,0.14,1.27,0.14C24.88,71.19,27.5,68.57,27.5,65.34z" stroke-miterlimit="10" stroke-width="3.5" stroke="#323334" fill="#C33836" style="stroke:rgb(50, 51, 52);fill:rgb(195, 56, 54);animation-play-state:paused" ></path>
<path d="M43.75,72.94l-10.08,5.82 c0,0,0.01,0.01,0.01,0.01L43.75,72.94C43.75,72.94,43.75,72.94,43.75,72.94z" stroke-miterlimit="10" stroke-width="3.5" stroke="#323334" fill="#C33836" style="stroke:rgb(50, 51, 52);fill:rgb(195, 56, 54);animation-play-state:paused" ></path>
<path d="M41.71,70.92c-2.8-1.61-6.37-0.66-7.98,2.14 c-1.05,1.82-0.99,3.97-0.06,5.7l10.08-5.82C43.25,72.13,42.58,71.43,41.71,70.92z" stroke-miterlimit="10" stroke-width="3.5" stroke="#323334" fill="#C33836" style="stroke:rgb(50, 51, 52);fill:rgb(195, 56, 54);animation-play-state:paused" ></path>
<metadata xmlns:d="https://loading.io/stock/" style="animation-play-state:paused" ><d:name style="animation-play-state:paused" >pizza</d:name>


<d:tags style="animation-play-state:paused" >pizza,delicious,food,yummy,bread,cheese,vegetable,sausage</d:tags>


<d:license style="animation-play-state:paused" >by</d:license>


<d:slug style="animation-play-state:paused" >5upfig</d:slug></metadata></g><!-- generated by https://loading.io/ --></svg>